PathFileType	3	(X/Y/Z)	results
DataRate	CameraRate	NumFrames	NumMarkers	Units	OrigDataRate	OrigDataStartFrame	OrigNumFrames
30.0	30.0	4	85	mm	30.0	30	239
Frame#	Time	head			nose			neck			shoulder_r			elbow_r			wrist_r			shoulder_l			elbow_l			wrist_l			hip_r			knee_r			ankle_r			hip_l			knee_l			ankle_l			heel_r			heel_l			mtoe_r			ltoe_r			mtoe_l			ltoe_l			asis_l			asis_r			psi_r			psi_l			mhnd_r			lhnd_r			mhnd_l			lhnd_l			l_lat_knee			r_med_wrist			l_lat_ankle			r_med_ankle			r_lat_knee			xiphoid			l_med_ankle			r_med_knee			l_med_elbow			navel			r_lat_elbow			r_lat_wrist			l_med_wrist			l_lat_elbow			l_med_knee			r_med_elbow			r_lat_ankle			l_lat_wrist			chin			T10			r_eye			l_eye			l_ear			r_ear			spinal_cord_8			spinal_cord_12			spinal_cord_27			spinal_cord_33			up_arm_r_0			up_arm_r_5			up_arm_l_0			up_arm_l_5			front_torso_11			front_torso_7			front_torso_4			front_torso_1			front_torso_10			thigh_r_2			thigh_r_3			thigh_l_1			thigh_l_5			shank_l_0			shank_l_4			shank_r_1			shank_r_2			foot_r_1			foot_r_3			foot_r_5			foot_r_6			foot_r_7			foot_l_1			foot_l_7			foot_l_0			foot_l_4			foot_l_5			foot_l_6			
		X1	Y1	Z1	X2	Y2	Z2	X3	Y3	Z3	X4	Y4	Z4	X5	Y5	Z5	X6	Y6	Z6	X7	Y7	Z7	X8	Y8	Z8	X9	Y9	Z9	X10	Y10	Z10	X11	Y11	Z11	X12	Y12	Z12	X13	Y13	Z13	X14	Y14	Z14	X15	Y15	Z15	X16	Y16	Z16	X17	Y17	Z17	X18	Y18	Z18	X19	Y19	Z19	X20	Y20	Z20	X21	Y21	Z21	X22	Y22	Z22	X23	Y23	Z23	X24	Y24	Z24	X25	Y25	Z25	X26	Y26	Z26	X27	Y27	Z27	X28	Y28	Z28	X29	Y29	Z29	X30	Y30	Z30	X31	Y31	Z31	X32	Y32	Z32	X33	Y33	Z33	X34	Y34	Z34	X35	Y35	Z35	X36	Y36	Z36	X37	Y37	Z37	X38	Y38	Z38	X39	Y39	Z39	X40	Y40	Z40	X41	Y41	Z41	X42	Y42	Z42	X43	Y43	Z43	X44	Y44	Z44	X45	Y45	Z45	X46	Y46	Z46	X47	Y47	Z47	X48	Y48	Z48	X49	Y49	Z49	X50	Y50	Z50	X51	Y51	Z51	X52	Y52	Z52	X53	Y53	Z53	X54	Y54	Z54	X55	Y55	Z55	X56	Y56	Z56	X57	Y57	Z57	X58	Y58	Z58	X59	Y59	Z59	X60	Y60	Z60	X61	Y61	Z61	X62	Y62	Z62	X63	Y63	Z63	X64	Y64	Z64	X65	Y65	Z65	X66	Y66	Z66	X67	Y67	Z67	X68	Y68	Z68	X69	Y69	Z69	X70	Y70	Z70	X71	Y71	Z71	X72	Y72	Z72	X73	Y73	Z73	X74	Y74	Z74	X75	Y75	Z75	X76	Y76	Z76	X77	Y77	Z77	X78	Y78	Z78	X79	Y79	Z79	X80	Y80	Z80	X81	Y81	Z81	X82	Y82	Z82	X83	Y83	Z83	X84	Y84	Z84	X85	Y85	Z85	
30	1.0	103.35796326475436	1514.776074406432	-563.4384667269849	82.02441245135793	1339.7803588116594	-671.2601317576989	88.9429876949633	1207.8082574873306	-486.53786491928315	267.6143919571119	1171.9993751380691	-499.9890950979944	338.89918137047476	951.6561987791185	-622.9873268983282	176.18914242181407	988.6291010007624	-772.3111197810234	-65.24532033283049	1166.4747481403735	-475.6149568316704	-192.66984418605446	977.5584355173331	-628.9674889884188	-8.869325811294681	1006.6255034244884	-773.0213724511252	197.2269838097334	752.5353297501396	-249.1420180739751	267.0575310221991	466.1409212662691	-506.02112444265543	306.74190706178484	101.01783730570901	-375.8588047948995	-14.08444974145541	741.4707944605482	-247.3575517472801	-104.2961034026107	458.5098319346027	-518.8595787009311	-114.19214730186476	103.05023721404788	-362.3303937521901	306.67234817455875	44.78525894832952	-349.0295923737147	-120.64808673917726	39.766561522288555	-324.63118003141454	314.9977186793662	41.534155081348814	-575.9362489228865	377.6415107226216	29.963958808724907	-512.4181644536956	-95.45869073605732	57.04609260287802	-550.5779171371684	-176.38564639984966	28.93015780740094	-501.7267999017685	-62.74249937654429	758.6835393343096	-327.37487645046167	246.70193471405838	774.9165632727106	-325.04802031297237	137.4119536672757	885.4677853306588	-224.94402092292535	32.21069283506232	875.3883194621927	-228.6275888317674	131.70020473331664	971.3005132214814	-828.0079980004315	115.1338028820937	1022.1039407127779	-824.3190496968059	36.190056158769586	992.3915336884917	-832.8683690573106	64.81372676280299	1033.2700954660706	-813.7535582589823	-150.6806285883881	468.19847235264047	-506.1528729128282	190.5435336216137	965.8531278227354	-780.6089766484371	-165.9907515463705	95.6264722024699	-345.17571165409174	276.4811647566337	82.3751755845532	-390.51210357347884	309.0534502865969	462.654338323734	-498.24132210327355	93.0945330044453	1017.453497897247	-502.20005537341814	-86.9475444114426	84.46410034149132	-374.3931416205665	226.25263067938934	460.6079546532943	-512.319069583213	-182.15454631848337	958.6125506078856	-598.0324492705324	91.47511067148986	815.4710937145426	-425.9730099730179	358.7269999181989	978.3556987032737	-645.3792757228853	169.00322782504784	1007.9154275270312	-749.0401806436158	-32.71514634241515	991.9790660706446	-790.0143005287958	-205.34162354567002	1014.6240267540438	-643.5576718127999	-56.71866243995971	466.87101665437206	-528.8106527363794	317.9768950354245	937.1288806405992	-596.2087580418006	355.34964681541413	90.47323114955557	-365.50222355105643	-4.54490911717259	1028.45780973384	-750.7114267084037	87.38449556917577	1267.2835290477676	-649.234873691367	88.95497298830979	1107.410420783431	-331.95649242316347	112.97786387665806	1370.6999530815613	-678.4184356246333	47.141721993067854	1369.7421399779103	-665.5710099219364	16.14582388042052	1369.2602321947904	-558.5572905890768	179.97709608118274	1368.7438404207105	-587.8277130337167	87.5506124505992	1280.7143800049218	-467.03306254528206	86.1250850153988	1196.9074689216582	-372.9726256050391	102.14273212168689	965.4612580936841	-283.98689306992543	89.15182956075842	1093.4732858934426	-339.66035725051086	275.80898735236275	1074.4754042359532	-596.6507275495899	344.76002961741057	1040.1791282236193	-552.8871332915595	-106.61134216285632	1150.4915844721086	-520.7720892053444	-160.9008166614634	1004.3199097521276	-551.2364808541488	139.85074649632426	857.0675243276496	-401.12866407228523	95.1706557624569	927.1866776789072	-494.0091093997222	27.026067114322096	1054.8108499251618	-527.0884886860304	19.612086581460893	884.0214897957322	-420.85728571716567	174.61738068863946	1090.1218042967866	-548.3223694193632	217.17168908631902	596.0892021243136	-388.94897749654024	316.77778854909104	576.1296845449023	-393.89164195915714	-29.80612858921113	533.6734802680888	-439.47086071276834	-135.3974970954202	695.8483773507495	-319.0704233358116	-179.95290795715786	191.329312674059	-399.156284520282	-61.204549652063605	314.87713290069513	-469.6441769023313	340.94476971620924	319.5787244306807	-439.6265315924776	249.56914493252194	267.48091308038136	-449.1666437755824	336.7280955146627	31.815904058202115	-556.7477395714471	360.2388993894316	31.11865977271677	-538.6447078540588	299.38523991859813	51.799743024462934	-493.19669290329784	336.27450602803316	54.95799508944455	-477.7379735935454	365.58681829972744	38.41336688440068	-464.3880902753945	-144.43149749850042	35.96065482614276	-529.3545736142112	-173.8637639209266	55.693966783593645	-423.44938125545843	-159.75986174998013	33.33973452330626	-522.6187672982926	-125.64037145590895	39.1012633121451	-536.9843160789271	-138.6376170039586	49.48020354971572	-477.96342095767085	-111.92602877396715	63.31451684081696	-445.0212572098575	
31	1.0333333333333332	103.19557025984335	1492.850794809017	-567.8892978560306	81.85409815379519	1317.9224201759973	-675.8186156219945	87.08233229018653	1187.080386860852	-492.19170199322417	254.59689658886626	1156.7054715334855	-520.7847585016787	341.7942211480097	936.5542323830833	-633.440251425626	178.5850172510102	972.3729691075281	-782.500377740521	-71.83872755267991	1141.0411284900972	-482.3958290789603	-193.6290845102497	957.9872650205432	-647.0219922311499	-1.4659923406265818	996.4275627549138	-777.3091207210299	198.35971151615803	738.2613937153882	-243.9823845987492	270.6190059834673	464.029471677026	-513.7525505890445	307.887004248167	101.1469238614488	-376.78796248385635	-12.92708088863917	727.2594513311998	-240.11213528231784	-108.39026202314581	457.6388491260403	-524.524612410697	-114.55430312861539	104.18793421719435	-363.32505828034533	307.5579527656912	44.942749458328905	-349.2794141123484	-120.33910697433879	41.09516993306373	-324.9939343071371	317.13064810221704	43.09214474487362	-576.1526188389286	379.5453436416087	31.77540906651401	-512.3639172351794	-97.46015871334367	57.94942714294222	-551.218388366546	-177.80771304722694	29.692779638162776	-501.4997602485657	-62.29300917884187	742.926504557993	-320.0133568015772	247.15910764914904	759.1634586142139	-320.74262285335976	138.75497914700773	871.6445790538287	-221.8324321855902	33.525699863913694	861.5086568079433	-224.38810180547068	134.18283143423835	954.7576034462662	-838.1765177088747	117.17491932959355	1005.4064326015482	-834.3726662677478	47.58315401699271	985.6845168289613	-834.6971421764862	74.22104127785468	1026.0019526649564	-811.8788457108102	-154.34227196217753	467.8532958551931	-510.3370168121335	193.1290388659319	949.7395947168496	-790.8579927395054	-166.10491771794466	96.72320273436053	-345.4560144932676	277.50618239245273	82.43315626465592	-391.0981368960397	312.5437903031716	460.66779222031056	-505.68908994557637	91.39068876462744	996.3635823877518	-502.4879436830365	-87.35848612159047	85.58619679797263	-375.4735420929437	229.7703126385792	458.63011931960057	-519.9279688452602	-184.31753542486456	937.9354131331316	-616.3998921054439	90.91522684861869	796.6252947705997	-420.546092505956	361.1549833954679	963.5193618539448	-655.922416235539	171.25797091502935	991.5519867425282	-759.184802638166	-23.917983066698596	982.2755747025527	-796.4801988132385	-205.68910288947723	995.5777613523924	-660.763026505632	-60.5602044244412	466.57248039013245	-533.7308520627656	320.55218755436954	921.8210541860767	-607.0283931644341	356.4231293550897	90.47841713438515	-366.22446960389385	1.044042935005235	1017.2320857831465	-753.7728635407609	87.37692912701276	1245.413494311044	-653.873529208742	88.89110277366748	1091.112992039294	-334.83187877981464	112.7435652478437	1348.8946803411377	-683.0254666759362	46.941120746949714	1347.8269313926305	-670.0151038395741	16.212571098597333	1347.200674169767	-562.9250571556146	179.97102913312796	1346.9553828239198	-592.6036234245698	85.77204288572791	1260.508999146885	-474.7503498540093	85.47832762447536	1179.4051351605974	-378.33938964193015	102.82304575422476	950.6018190299769	-282.9948701303699	89.03043106145934	1076.9629894999198	-342.1387269713267	271.60466318696086	1056.734635034359	-613.7262196878768	340.3467222665582	1027.4263753806501	-566.1732156849744	-111.488664138819	1126.7699081382689	-529.6186062684368	-164.78679348158641	981.908913002953	-567.2508555671202	139.4792663658184	838.977760124275	-397.4050154203733	93.70554941884666	906.3687524895583	-491.7607480696811	25.000847206339166	1032.9071082196538	-527.7269552723751	18.99420967969409	865.1932554455918	-416.6187871735464	172.30057019172008	1067.8061599664684	-551.5131871687487	219.58157697546898	588.38277334502	-390.62889701200413	319.33914360903276	569.4148720847533	-396.35898822518163	-32.288298537030684	528.837896404839	-441.57788483999724	-135.23385159518722	686.3442103553787	-312.96811134430834	-181.21168138254052	191.64751520640456	-400.49271430551664	-63.962134304229494	314.87589692974825	-473.9848166237145	343.53331995308406	318.2500055714342	-444.61577583675313	251.8184405436681	266.5845314677642	-453.2041501372894	338.8535748563054	33.47871534461781	-556.9029694944347	362.27284193243685	32.90966551365976	-538.6772207389247	300.97377066764045	52.72166602719976	-493.44111086918326	337.74643598760133	56.155955371888226	-477.7649743917379	367.1500344334009	39.82573398085493	-464.351994651102	-146.15293138508787	36.76030848112748	-529.4607014813325	-174.5877566278335	56.6383828021091	-423.310362099778	-161.40507894364362	34.10711441199854	-522.5663837725951	-127.44874903843731	39.941879085519844	-537.2846378896447	-139.88838605958333	50.41200422244615	-478.15978048089545	-112.89241076490849	64.4019284349201	-445.51651684486717	
32	1.0666666666666667	102.99041670077766	1470.5228803582347	-572.5054493254436	81.94623662276621	1295.3300680751584	-680.0635886084417	85.91591294017829	1165.8760104001278	-499.0089127283844	246.94077246355914	1137.586468603978	-534.9964789840315	347.53161253075194	918.8524747625893	-638.9105031984727	185.43629902769194	959.2292051073524	-788.0211211344565	-77.49870523656053	1117.6555942614673	-489.5173535723535	-195.70571253949166	938.8951034114604	-661.3171554021085	1.916131309126351	981.1229915237822	-781.9051259119494	198.59895861748723	724.1910279183977	-239.79429711884382	273.87655242493713	462.1535224018369	-521.2201223094443	308.48060997406174	101.4337791265421	-377.9868454107139	-12.657724170407128	713.5422039296024	-233.84898503158786	-112.44045574773999	456.4477956907853	-529.4300799249743	-114.33702257435154	104.90090154468945	-364.01537333883005	307.8669627282724	45.25027811527024	-349.91986749424734	-119.30425802547201	41.99736452303951	-325.08588503655136	318.50120100900693	44.877521719433545	-576.7530358924735	380.59307346150376	33.01423100406695	-512.7489509702865	-99.90084456929891	58.38351587041194	-551.6692415841438	-179.44537753033558	30.13920658743944	-500.66888995086543	-62.746887898748966	728.5481251870896	-313.42633505811125	246.70751851666083	744.3132996195835	-317.19631390713664	139.3928286883847	857.8614955359113	-218.31735810357577	34.13001023312639	847.8604282564938	-219.79630690185198	141.14816009482155	943.1614835219601	-844.2534681189095	124.61386896555518	993.8890378855082	-839.5232778592713	53.48510194266623	971.9965285721	-837.3304427133792	78.97099528831444	1011.7382116847131	-812.2941652852485	-157.99674870398994	467.01995489010136	-513.8751356660301	199.80203426799903	936.624982424653	-796.7574073838596	-165.57193344633757	97.39090976955379	-345.27838484041007	278.2483742866073	82.55761971746229	-392.3980583126088	315.71134939058066	458.97295897421924	-512.7973646764613	89.31148368765523	974.9044773353414	-502.98605932624827	-87.23251063711365	86.29272305951535	-376.3565192639967	232.99975164081206	456.9240498308725	-527.3898270068464	-187.42697622298235	918.1569911040958	-630.8559021527452	89.03583028064544	778.0119449335913	-414.4234753631688	367.04686125935496	946.1143230798782	-660.8957653099168	178.1776714436763	978.0115261845593	-764.3637098568867	-19.62525381401209	967.4475849328236	-802.4198247926047	-207.10203042662692	976.8457529776348	-674.6279636734098	-64.38344200192046	465.97924519516573	-537.9469851852703	325.5041832696995	903.8116761185418	-613.3284093810008	356.84756170008615	90.83296170800197	-366.6105319130787	3.322843687651178	1001.2978353612874	-757.737364451911	87.6588092990598	1222.8781525893341	-657.9792216130703	89.29064305664528	1075.1985613330555	-338.5678397184354	112.75671267311017	1326.359213445971	-687.3632791712869	46.969935125587625	1325.1652961085058	-674.2848315360303	16.349822899253255	1324.682182737758	-567.162987876155	180.0787052741765	1324.7562923050987	-597.0052000177309	85.1249522043338	1239.8502316717465	-484.01332359717844	85.699073973137	1162.006363851182	-384.9527416379296	103.28956226287106	936.4312411107932	-282.2453278712172	89.28073981462758	1060.812439289218	-345.399487337824	272.20850195794435	1036.7200837158935	-625.0468078464146	339.4281230811397	1010.7530046647057	-573.5398539301174	-115.85557148409575	1104.6422092100297	-538.1504545250374	-169.0319835232467	960.9769591959391	-580.2711125367769	138.0581546474115	820.8918660555024	-393.30876999696665	91.38979403468714	885.3075501224439	-489.2903675186558	22.763129706040996	1010.8866664585696	-528.6111777963409	17.451852388548282	846.997417952674	-411.90151374745733	169.8972861419385	1044.3068345876582	-555.3613068492101	221.41954877069372	580.9186218644611	-392.671392686637	321.3370404114237	562.9685530971113	-398.8743935452996	-34.99113627289938	524.0365235076509	-443.42769159486045	-135.7752317994901	676.7525428622434	-307.5347808573134	-182.00045359122862	191.58142710404596	-401.1901716392726	-66.51525062737029	314.5156613911173	-477.8981985466277	345.5285366759595	317.34614904922665	-448.7987075314294	253.8151244591208	265.74436224200673	-457.77679810867625	340.1143611750598	35.093479949777375	-557.4658275468023	363.4466099303489	34.35693754578861	-539.1347752283809	301.97526439186197	53.993597464604576	-494.05626146247334	338.68066091922617	57.25018993210827	-478.1857547230541	367.98846087857765	40.772539836168285	-464.7434458952113	-148.22970677619864	37.1835445775367	-529.1249719421844	-175.06600235170993	57.25988523720771	-422.5964524668073	-163.371584390776	34.52711196989067	-521.9929337558293	-129.6510374922727	40.370468745673925	-537.2403506563204	-141.1999609700825	50.95511699308598	-477.95540786991	-113.72633479053606	65.04898640178222	-445.75841993579	
33	1.1	101.97095125219052	1447.1301553294888	-576.2626664519493	82.03423542980106	1272.521922670045	-684.9761650001632	85.78219906403285	1144.8133507242528	-505.5871317913566	248.3654263629538	1115.6877926662846	-540.2739234086661	353.9461000291697	899.0188310091922	-643.5622770517226	191.31229533414586	944.9324169818196	-790.4681502760253	-79.95778198802203	1095.3156382457169	-495.114472854461	-199.66799504072208	921.4251284493052	-670.8271276827771	0.1730810674933636	960.6806175632344	-788.7321623783879	197.66799194465636	710.0744304104734	-236.82387945582178	276.58608255790386	460.5448714564027	-529.050005057689	308.1622219527602	102.21918018651466	-379.258176190159	-13.546178778928525	700.1462045820476	-228.56950921017116	-116.49595642484528	454.95034564420104	-534.1815827093861	-114.33713795625623	105.3917057013452	-364.60877342501203	307.2408050093918	46.10864815546889	-350.664773011624	-118.5698526127362	42.73091141865577	-325.0707665502817	319.2835454815856	46.729333874604805	-577.4269819616107	380.73337763339447	33.32859100618753	-513.1074717250578	-101.20026299608007	58.2099769554368	-551.882829194138	-180.17634717192882	29.8451513904363	-500.07236310381955	-64.45915889053765	715.543787686503	-307.54697133532835	244.988174527127	730.2399330498026	-314.6991924924236	139.1734966845236	843.8914558525342	-214.3335177461208	33.8662345879181	834.2616053543661	-214.67427355278375	146.50738696523314	930.8000444031568	-846.8107097299054	130.51106391572355	981.5437925162921	-840.627512250216	52.13275921832524	951.0857796226777	-843.7116834030985	78.22776578330628	989.9235369014648	-817.8964443835765	-161.71006637808264	465.80542271892745	-517.4348008779259	205.3954514251463	922.4284512718953	-799.8959905036828	-165.35226744999858	97.72542335899864	-345.34285833392437	278.63567451830414	82.90985894428727	-394.5327837388918	318.31171360107317	457.6232626901001	-520.1966223307262	88.13031019858278	953.8023991801655	-502.98390279666006	-87.19989091321375	86.83953412159828	-376.962295564011	235.6898735243589	455.5067144997818	-535.2796642638647	-192.23122674454913	900.1114059059714	-640.5465326548089	87.14496608005106	760.0861866331505	-407.6784219888897	373.47487107227374	926.6841158164324	-665.0253657111703	184.39295488322577	963.149763075703	-766.273369912758	-21.44248101357496	947.7544582532314	-809.650641530259	-210.08106734968243	959.7845308719357	-683.7665887063908	-68.20292031432842	465.0754253464265	-541.9270230410875	331.66624318630693	883.5162159181642	-618.4793407764705	356.1294965182723	92.14661692201915	-365.8849231063061	1.766087830415125	980.5137320217721	-764.2946142628186	88.0452963692653	1199.9601466808217	-663.3361876109652	89.3079881821609	1059.7063583447828	-342.12614213183724	112.7112254363098	1303.7452606464108	-692.0049791931352	46.89990302104427	1302.150511449536	-679.0938232341555	16.026227976740344	1300.8413458932623	-572.0516991185623	179.82377164547054	1301.8959953455528	-601.4959251076324	85.45071619589987	1219.2640170794452	-493.1506080248066	86.00008245620432	1144.8811939341952	-391.46535792022905	102.78205759726836	922.888862756535	-281.1016667490285	89.19309103953474	1045.093440061485	-348.45713199300087	276.7166165533737	1015.7296061625725	-630.4189091155354	343.3366274458188	990.4019446840664	-577.8259754375896	-117.94113278583768	1083.7736246386648	-544.4077063776023	-173.5967477885581	941.8515853157807	-589.1533426275568	136.48213836847953	803.3968237904733	-388.24291726037984	89.77934328741958	864.7210302610225	-486.212167187491	21.675444430629632	989.2471937539578	-529.5821245746897	15.94528959619912	829.512823968872	-407.2663955783393	168.87993478579935	1020.9097999275274	-558.0295220267768	222.4234521706436	573.5913348381856	-395.501854716014	322.5180556978992	556.750004761332	-401.9537745965196	-38.03133739204673	519.1745113559666	-445.32776559648835	-137.20909735029895	667.1159029410591	-303.1180041422277	-182.9652510935761	191.11973532491612	-402.22135191907284	-69.06671815933862	313.9857319765998	-481.37216061733216	346.4066514012265	317.3471893615738	-451.80005002920103	255.46314802345356	264.93687144945153	-463.51065472298484	340.5826914651845	36.42708275592622	-558.0604496509418	363.7813187406783	35.14230067947349	-539.5905597394939	302.42018716331063	55.72618235403726	-494.78528677776603	339.08172131754765	58.18796724133272	-478.6720611068216	367.981156201757	41.075461138676424	-465.1391177453578	-149.23920703984507	36.89994871080104	-528.828451082932	-175.23966665957073	57.32561738277541	-422.1591498056625	-164.30704496304125	34.2092592948213	-521.5538712756542	-130.7455656913258	40.131684757952954	-537.118440315897	-141.82692511318146	50.92539577266115	-477.78197489116593	-114.13736586258324	65.27860187353933	-445.8859390006978	
